HIERARCHY
ROOT SpineBase
{
  OFFSET 0.000000 0.000000 0.000000
  CHANNELS 6 Xposition Yposition Zposition Zrotation Xrotation Yrotation
  JOINT SpineMid
  {
    OFFSET -0.000000 26.299030 0.000000
    CHANNELS 3 Zrotation Xrotation Yrotation
    JOINT SpineShoulder
    {
      OFFSET 0.122951 19.715797 -0.589093
      CHANNELS 3 Zrotation Xrotation Yrotation
      JOINT Neck
      {
        OFFSET 0.028759 6.589845 -0.465899
        CHANNELS 3 Zrotation Xrotation Yrotation
        JOINT Head
        {
          OFFSET 3.239963 12.257457 1.489047
          CHANNELS 3 Zrotation Xrotation Yrotation
          End Site
          {
            OFFSET 0 0 0
          }
        }
      }
      JOINT ShoulderLeft
      {
        OFFSET -14.175885 -2.738225 -7.634824
        CHANNELS 3 Zrotation Xrotation Yrotation
        JOINT ElbowLeft
        {
          OFFSET -12.087647 -20.471347 -2.396963
          CHANNELS 3 Zrotation Xrotation Yrotation
          JOINT WristLeft
          {
            OFFSET 4.045689 -8.014017 -23.196202
            CHANNELS 3 Zrotation Xrotation Yrotation
            JOINT HandLeft
            {
              OFFSET -0.303103 -2.555854 -4.461873
              CHANNELS 3 Zrotation Xrotation Yrotation
              JOINT HandTipLeft
              {
                OFFSET -0.454763 -1.195028 -4.227100
                CHANNELS 3 Zrotation Xrotation Yrotation
                End Site
                {
                  OFFSET 0 0 0
                }
              }
              JOINT ThumbLeft
              {
                OFFSET 4.192141 -6.989732 0.655616
                CHANNELS 3 Zrotation Xrotation Yrotation
                End Site
                {
                  OFFSET 0 0 0
                }
              }
            }
          }
        }
      }
      JOINT ShoulderRight
      {
        OFFSET 15.322816 -4.770632 2.902555
        CHANNELS 3 Zrotation Xrotation Yrotation
        JOINT ElbowRight
        {
          OFFSET 6.861822 -25.600913 5.296696
          CHANNELS 3 Zrotation Xrotation Yrotation
          JOINT WristRight
          {
            OFFSET 10.900605 -3.590935 -12.185330
            CHANNELS 3 Zrotation Xrotation Yrotation
            JOINT HandRight
            {
              OFFSET 1.938596 -1.701311 -2.161718
              CHANNELS 3 Zrotation Xrotation Yrotation
              JOINT HandTipRight
              {
                OFFSET 3.275760 -0.590224 -3.435960
                CHANNELS 3 Zrotation Xrotation Yrotation
                End Site
                {
                  OFFSET 0 0 0
                }
              }
              JOINT ThumbRight
              {
                OFFSET -0.297738 6.760677 -1.904632
                CHANNELS 3 Zrotation Xrotation Yrotation
                End Site
                {
                  OFFSET 0 0 0
                }
              }
            }
          }
        }
      }
    }
  }
  JOINT HipLeft
  {
    OFFSET -6.384277 1.261413 -4.995544
    CHANNELS 3 Zrotation Xrotation Yrotation
    JOINT KneeLeft
    {
      OFFSET 7.581778 -0.421121 -31.196438
      CHANNELS 3 Zrotation Xrotation Yrotation
      JOINT AnkleLeft
      {
        OFFSET 0.607635 -32.569852 -6.882661
        CHANNELS 3 Zrotation Xrotation Yrotation
        JOINT FootLeft
        {
          OFFSET 2.426660 -2.312755 -11.031627
          CHANNELS 3 Zrotation Xrotation Yrotation
          End Site
          {
            OFFSET 0 0 0
          }
        }
      }
    }
  }
  JOINT HipRight
  {
    OFFSET 6.049727 1.032550 -1.600921
    CHANNELS 3 Zrotation Xrotation Yrotation
    JOINT KneeRight
    {
      OFFSET 18.743918 -2.777665 -24.341833
      CHANNELS 3 Zrotation Xrotation Yrotation
      JOINT AnkleRight
      {
        OFFSET -1.346413 -31.854918 -4.870121
        CHANNELS 3 Zrotation Xrotation Yrotation
        JOINT FootRight
        {
          OFFSET 1.885278 -3.974808 -8.541164
          CHANNELS 3 Zrotation Xrotation Yrotation
          End Site
          {
            OFFSET 0 0 0
          }
        }
      }
    }
  }
}
MOTION
Frames: 12
Frame Time: 0.033333
19.898163 39.330853 369.878893 0.000000 0.000000 -15.270264 -0.000000 0.000000 15.270264 -0.000000 0.000000 0.000000 -0.000000 0.000000 0.000000 0.000000 0.000000 0.000000 -0.000000 0.000000 0.000000 -0.000000 0.000000 0.000000 -0.000000 0.000000 0.000000 -0.000000 0.000000 0.000000 0.000000 0.000000 0.000000 0.000000 0.000000 0.000000 -0.000000 0.000000 0.000000 -0.000000 0.000000 0.000000 -0.000000 0.000000 0.000000 -0.000000 0.000000 0.000000 0.000000 0.000000 0.000000 0.000000 0.000000 0.000000 -0.000000 0.000000 15.270264 -0.000000 0.000000 0.000000 -0.000000 0.000000 0.000000 0.000000 0.000000 0.000000 -0.000000 0.000000 15.270264 -0.000000 0.000000 0.000000 -0.000000 0.000000 0.000000 0.000000 0.000000 0.000000
19.839624 39.333866 369.789754 -0.149535 0.175585 -15.112267 0.190141 -0.130527 15.112713 -0.000000 0.000000 0.000000 -0.000000 0.000000 0.000000 0.000000 0.000000 0.000000 -0.000000 0.000000 0.000000 -0.212498 0.924903 1.059907 -0.336242 -8.780065 0.717415 1.405613 -2.406183 -1.935676 0.000000 0.000000 0.000000 0.000000 0.000000 0.000000 -0.000000 0.000000 0.000000 -0.000000 0.000000 0.000000 1.943017 2.765301 0.605353 -3.541111 -4.846288 -4.282578 0.000000 0.000000 0.000000 0.000000 0.000000 0.000000 0.190141 -0.130527 15.112713 -0.000000 0.000000 0.000000 -0.000000 0.000000 0.000000 0.000000 0.000000 0.000000 0.190141 -0.130527 15.112713 -0.000000 0.000000 0.000000 0.907792 4.873636 0.295500 0.000000 0.000000 0.000000
19.786657 39.337205 369.717365 -0.284374 0.326501 -14.945109 0.358960 -0.242113 14.946678 -0.000000 0.000000 0.000000 -0.000000 0.000000 0.000000 0.000000 0.000000 0.000000 0.982818 -0.053959 -0.083182 -1.382793 1.688255 1.991134 -0.661840 -16.552605 1.342765 2.310217 -4.949206 -4.071198 0.000000 0.000000 0.000000 0.000000 0.000000 0.000000 -0.000000 0.000000 0.000000 0.562369 0.684670 0.161044 2.333144 3.631594 0.933839 -5.908402 -7.856241 -7.349551 0.000000 0.000000 0.000000 0.000000 0.000000 0.000000 0.358960 -0.242113 14.946678 -0.000000 0.000000 0.000000 -0.000000 0.000000 0.000000 0.000000 0.000000 0.000000 0.358960 -0.242113 14.946678 -0.000000 0.000000 0.000000 1.567989 8.476100 0.464836 0.000000 0.000000 0.000000
19.739262 39.340868 369.661725 -0.404454 0.452662 -14.769308 0.506495 -0.334587 14.772384 -0.000000 0.000000 0.000000 -0.000000 0.000000 0.000000 0.000000 0.000000 0.000000 1.360499 -0.038829 -0.136883 -1.915272 2.183836 2.691423 -0.929556 -23.088180 1.841546 2.716971 -7.306982 -6.299352 0.000000 0.000000 0.000000 0.000000 0.000000 0.000000 -0.000000 0.000000 0.000000 0.678617 0.827718 0.196584 2.182893 3.836277 1.302888 -7.137937 -9.339092 -9.409453 0.000000 0.000000 0.000000 0.000000 0.000000 0.000000 0.506495 -0.334587 14.772384 -0.000000 0.000000 0.000000 -0.000000 0.000000 0.000000 0.000000 0.000000 0.000000 0.506495 -0.334587 14.772384 -0.000000 0.000000 0.000000 2.041408 11.070968 0.560921 0.000000 0.000000 0.000000
19.697440 39.344855 369.622835 -0.509724 0.554001 -14.585407 0.632822 -0.407762 14.590123 -0.000000 0.000000 0.000000 -0.000000 0.000000 0.000000 0.000000 0.000000 0.000000 1.652449 0.005666 -0.198614 -2.326213 2.463316 3.208647 -1.107907 -28.307023 2.211090 2.722118 -9.321991 -8.549110 0.000000 0.000000 0.000000 0.000000 0.000000 0.000000 -0.000000 0.000000 0.000000 0.672744 0.822255 0.199923 1.119355 2.909026 1.641438 -7.203059 -9.414281 -10.559027 0.000000 0.000000 0.000000 0.000000 0.000000 0.000000 0.632822 -0.407762 14.590123 -0.000000 0.000000 0.000000 -0.000000 0.000000 0.000000 0.000000 0.000000 0.000000 0.632822 -0.407762 14.590123 -0.000000 0.000000 0.000000 2.366112 12.848075 0.613593 0.000000 0.000000 0.000000
19.661190 39.349168 369.600694 -0.600135 0.630461 -14.393972 0.738044 -0.461446 14.400246 -0.000000 0.000000 0.000000 -0.000000 0.000000 0.000000 0.000000 0.000000 0.000000 1.853409 0.079729 -0.267936 -2.608068 2.536003 3.550256 -1.173662 -32.223930 2.463489 2.446512 -10.981941 -10.791787 0.000000 0.000000 0.000000 0.000000 0.000000 0.000000 -0.000000 0.000000 0.000000 0.547697 0.671776 0.171598 -0.992872 0.668567 1.892488 -6.018066 -8.045052 -10.834239 0.000000 0.000000 0.000000 0.000000 0.000000 0.000000 0.738044 -0.461446 14.400246 -0.000000 0.000000 0.000000 -0.000000 0.000000 0.000000 0.000000 0.000000 0.000000 0.728693 -0.663103 13.602112 0.056514 0.193802 0.797948 2.565559 13.933942 0.639566 0.000000 0.000000 0.000000
19.619725 39.352910 369.588977 -0.684120 0.677342 -14.148790 0.828964 -0.489515 14.156375 -0.000000 0.000000 0.000000 -0.000000 0.000000 0.000000 0.000000 0.000000 0.000000 2.385812 1.541327 -1.234837 -3.428455 -0.096221 4.819552 -0.674677 -30.281363 0.988607 1.844799 -14.967534 -13.629010 0.000000 0.000000 0.000000 0.000000 0.000000 0.000000 -0.000000 0.000000 0.000000 -0.000000 0.000000 0.000000 -5.170577 -3.901149 2.155013 -2.760824 -4.337545 -9.618871 0.000000 0.000000 0.000000 0.000000 0.000000 0.000000 0.828964 -0.489515 14.156375 -0.000000 0.000000 0.000000 -0.000000 0.000000 0.000000 0.000000 0.000000 0.000000 0.992929 -0.426955 12.785434 -0.173738 -0.024727 1.372215 2.305210 12.483970 0.593322 0.000000 0.000000 0.000000
19.590243 39.352493 369.626242 -0.754315 0.678028 -14.015147 0.896093 -0.475104 14.023326 -0.000000 0.000000 0.000000 -0.000000 0.000000 0.000000 0.000000 0.000000 0.000000 3.051698 3.282144 -2.412887 -4.223394 -2.817929 6.156137 -0.351107 -36.935143 0.964606 1.220298 -10.203429 -16.199666 0.000000 0.000000 0.000000 0.000000 0.000000 0.000000 -0.000000 0.000000 0.000000 -0.000000 0.000000 0.000000 -3.165319 -2.578556 1.077711 -8.435177 -8.930716 -8.411486 0.000000 0.000000 0.000000 0.000000 0.000000 0.000000 0.896093 -0.475104 14.023326 -0.000000 0.000000 0.000000 -0.000000 0.000000 0.000000 0.000000 0.000000 0.000000 1.283768 -0.054336 12.059056 -0.467024 -0.330493 1.964714 2.309698 12.480003 0.583737 0.000000 0.000000 0.000000
19.612094 39.356354 369.681062 -0.737816 0.644793 -13.924837 0.871326 -0.448234 13.932397 -0.000000 0.000000 0.000000 -0.000000 0.000000 0.000000 0.000000 0.000000 0.000000 2.365657 2.158538 -1.612294 -3.138559 -0.040409 4.694292 0.080764 -40.232313 0.900999 0.465731 -11.219043 -17.982399 0.000000 0.000000 0.000000 0.000000 0.000000 0.000000 0.236355 0.812872 0.265344 -0.240141 -0.811762 -0.268722 -8.533771 -9.346481 -0.627961 -1.839522 -1.366095 -6.254202 0.000000 0.000000 0.000000 0.000000 0.000000 0.000000 0.871326 -0.448234 13.932397 -0.000000 0.000000 0.000000 -0.000000 0.000000 0.000000 0.000000 0.000000 0.000000 1.412269 0.225747 11.631229 -0.665734 -0.551069 2.299017 2.693185 13.892079 0.396844 0.000000 0.000000 0.000000
19.615203 39.370901 369.702826 -0.763689 0.667495 -13.727882 0.900305 -0.467133 13.736001 -0.000000 0.000000 0.000000 -0.000000 0.000000 0.000000 0.000000 0.000000 0.000000 1.336942 0.557139 -0.495150 -1.790312 1.273264 2.603033 -0.577111 -32.869442 3.850920 1.080080 -16.781470 -17.666452 0.000000 0.000000 0.000000 0.000000 0.000000 0.000000 -0.000000 0.000000 0.000000 -0.506253 -0.614329 -0.154559 -18.767386 -20.142340 -3.989091 9.645190 11.792739 -2.663754 0.000000 0.000000 0.000000 0.000000 0.000000 0.000000 0.900305 -0.467133 13.736001 -0.000000 0.000000 0.000000 -0.000000 0.000000 0.000000 0.000000 0.000000 0.000000 1.537971 0.351666 11.197085 -0.784563 -0.679363 2.534906 2.624743 13.565414 0.403540 0.000000 0.000000 0.000000
19.601291 39.397924 369.683513 -0.824132 0.747750 -13.530566 0.976244 -0.534097 13.540494 -0.000000 0.000000 0.000000 -0.000000 0.000000 0.000000 0.000000 0.000000 0.000000 0.151088 -3.114943 1.833248 -0.087404 5.553197 -0.357990 -1.858933 -23.778650 5.172495 2.324687 -20.390102 -13.668810 0.000000 0.000000 0.000000 0.000000 0.000000 0.000000 -0.000000 0.000000 0.000000 -0.000000 0.000000 0.000000 -14.673840 -16.578848 -3.630085 6.369315 8.648861 -3.347096 0.000000 0.000000 0.000000 0.000000 0.000000 0.000000 0.976244 -0.534097 13.540494 -0.000000 0.000000 0.000000 -0.000000 0.000000 0.000000 0.000000 0.000000 0.000000 1.649575 0.317359 10.853459 -0.821650 -0.709413 2.683222 1.719006 10.272524 0.863773 0.000000 0.000000 0.000000
19.587957 39.428648 369.648763 -0.876236 0.826195 -13.490589 1.044851 -0.598883 13.502367 -0.000000 0.000000 0.000000 -0.000000 0.000000 0.000000 0.000000 0.000000 0.000000 -0.574222 -3.960689 2.389225 0.965368 6.637342 -1.468174 -2.728145 -17.359097 5.838184 3.359360 -13.776863 -7.942722 0.000000 0.000000 0.000000 0.000000 0.000000 0.000000 -0.000000 0.000000 0.000000 -0.000000 0.000000 0.000000 -13.635785 -14.828063 -1.955316 5.639507 6.791888 -3.007240 0.000000 0.000000 0.000000 0.000000 0.000000 0.000000 1.044851 -0.598883 13.502367 -0.000000 0.000000 0.000000 -0.000000 0.000000 0.000000 0.000000 0.000000 0.000000 1.655506 0.130045 10.864013 -0.737109 -0.600761 2.636988 1.012474 7.534470 1.166473 0.000000 0.000000 0.000000
